<svg xmlns="http://www.w3.org/2000/svg" xmlns:xlink="http://www.w3.org/1999/xlink" width="423" height="500" viewBox="0 0 423 500">
    <defs>
        <path id="a" d="M0 .764h152.857v232.68H0z"/>
        <path id="c" d="M.074.579h203.542v200.853H.074z"/>
        <path id="e" d="M.706.802h150.516v232.68H.706z"/>
        <path id="g" d="M0 .764h152.857v232.68H0z"/>
        <path id="i" d="M.706.802h150.516v232.68H.706z"/>
    </defs>
    <g fill="none" fill-rule="evenodd">
        <g transform="translate(0 248.362)">
            <mask id="b" fill="#fff">
                <use xlink:href="#a"/>
            </mask>
            <path fill="#FFB78B" d="M8.877 88.22C3.643 94.366.462 102.17.045 110.346c-.575 11.397 4.262 22.614 12.945 30.008l105.134 89.552c6.228 5.306 15.579 4.556 20.882-1.677 5.301-6.23 4.551-15.586-1.678-20.89L32.194 117.789a7.369 7.369 0 0 1-2.562-5.94 7.39 7.39 0 0 1 3.15-5.644l113.672-78.42c6.729-4.647 8.429-13.872 3.784-20.615-4.644-6.737-13.87-8.432-20.602-3.784L15.964 81.805a36.668 36.668 0 0 0-7.087 6.414" mask="url(#b)"/>
        </g>
        <path fill="#FAF9FA" d="M58.084 344.087l12.24-8.477c1.158-.802 1.44-2.349.66-3.475l-.316-.459-19.813-28.634-.296-.426a2.497 2.497 0 0 0-3.505-.638l-12.238 8.476a2.521 2.521 0 0 0-.638 3.505l.296.427 19.811 28.637.317.456c.781 1.127 2.356 1.387 3.482.608"/>
        <path fill="#FFDC00" d="M147.946 278.157c7.916-5.482 9.864-16.336 4.406-24.225-5.46-7.892-16.302-9.891-24.218-4.41l-77.279 53.52 19.813 28.634 77.278-53.519z"/>
        <path fill="#FFB78B" d="M255.941 261.738c.443 4.705-.445 9.447-2.595 13.56-2.664 5.112-6.516 9.336-11.145 12.264l-4.999 3.148c-7.26 4.556-13.22 11.3-17.184 19.377l-6.777 13.82h-.037l-6.812-13.82c-3.962-8.077-9.927-14.821-17.184-19.377l-4.999-3.148c-4.629-2.928-8.48-7.152-11.11-12.264-2.148-4.113-3.074-8.855-2.629-13.56v-.074c1.147-11.818 7-22.007 15.406-28.38a237.03 237.03 0 0 1 27.328-1.556c9.888 0 19.035.593 27.332 1.556 8.442 6.373 14.254 16.562 15.405 28.38v.074z"/>
        <path fill="#FAF9FA" d="M217.502 225.616l-4.222.111h-.076l-4.295-.11c-10.739-.335-21.072 2.776-29.848 8.594 2.186-.335 4.48-.63 6.815-.927a237.03 237.03 0 0 1 27.328-1.556c9.888 0 19.035.593 27.332 1.556 2.332.296 4.591.592 6.812.927-8.777-5.818-19.109-8.93-29.846-8.595"/>
        <path fill="#FA9" d="M233.605 234.308c0 11.254-9.12 20.376-20.368 20.376-11.247 0-20.369-9.122-20.369-20.376 0-11.255 9.122-20.377 20.37-20.377 11.247 0 20.367 9.122 20.367 20.377"/>
        <path fill="#FFB78B" d="M213.219 275.619c-12.868 0-23.3-10.436-23.3-23.308v-66.244c0-12.875 10.432-23.313 23.3-23.313 12.867 0 23.3 10.438 23.3 23.313v66.244c0 12.872-10.433 23.308-23.3 23.308"/>
        <path fill="#FFA670" d="M213.219 162.754c-12.868 0-23.3 10.439-23.3 23.313v34.091c7.422 2.559 15.228 3.96 23.298 3.96 8.075 0 15.881-1.401 23.302-3.962v-34.089c0-12.874-10.433-23.313-23.3-23.313"/>
        <path fill="#FA9" d="M303.155 263.827c0 8.184-6.633 14.82-14.814 14.82-8.181 0-14.813-6.636-14.813-14.82 0-8.185 6.632-14.82 14.813-14.82 8.18 0 14.814 6.635 14.814 14.82M152.889 263.827c0 8.184-6.63 14.82-14.81 14.82-8.183 0-14.815-6.636-14.815-14.82 0-8.185 6.632-14.82 14.814-14.82 8.181 0 14.81 6.635 14.81 14.82M290.907 334.76c0 18.066-14.64 32.711-32.695 32.711h-89.947c-18.058 0-32.698-14.645-32.698-32.712 0-18.066 14.64-32.712 32.698-32.712h89.947c18.055 0 32.695 14.646 32.695 32.712"/>
        <path fill="#FF8A8A" d="M266.326 352.653H160.149c-9.294 0-17.662-3.9-23.616-10.128 3.49 14.312 16.354 24.946 31.732 24.946h89.946c15.377 0 28.24-10.634 31.73-24.946-5.953 6.228-14.322 10.128-23.615 10.128M186.773 235.79c-1.52.17-2.955.378-4.418.573-6.487 6.354-10.904 15.222-11.884 25.302v.074c-.446 4.704.48 9.447 2.628 13.559 2.63 5.112 6.481 9.336 11.11 12.265l4.503 2.834c-15.017-18.412-8.141-41.816-1.94-54.608"/>
        <path fill="#FFA670" d="M253.347 275.298c2.15-4.112 3.037-8.855 2.594-13.56v-.073c-.979-10.08-5.374-18.951-11.875-25.304-1.471-.195-2.914-.404-4.44-.579 6.207 12.794 13.083 36.21-1.946 54.629l4.521-2.849c4.629-2.928 8.481-7.152 11.146-12.264"/>
        <path fill="#FFDC00" d="M305.193 259.663c.111.407.185.853.258 1.296a16.9 16.9 0 0 1 .223 1.89c.037.408.073.704.073.962l-.073.744c0 .516-.074.962-.15 1.443-.073.741-.22 1.52-.405 2.262l-.149.516a22.484 22.484 0 0 1-1.148 2.89l-.296.519c-.371.704-.963 1.595-1.592 2.445-.778.926-1.555 1.743-2.445 2.483-6.85 5.854-10.776 14.374-10.665 23.379.037 4.333 0 8.78-.038 13.338l-.036 3.297c3.112 5.409 4.741 11.447 4.741 17.635 0 2.741-.334 5.558-1.037 8.373-1.149 4.706-3.185 9.041-6.112 12.894l-.258.296c-.48.668-1 1.26-1.517 1.852l-.335.37a27.498 27.498 0 0 1-1.74 1.779l-.407.372s-1.295 2.703-1.89 4.075c-11.441 37.233-13.96 65.8 5.593 109.48.962 2.11 2.26 4.407 3.74 7.113 5.63 10.04 14.072 25.232 14.072 48.794 0 2.149 0 4.224-.038 6.26-81.136-1.11-89.837-37.455-89.837-37.455h-.038s-8.778 36.679-90.802 37.456c-.036-2.037-.036-4.112-.036-6.261 0-23.6 8.441-38.754 14.072-48.794 1.48-2.706 2.778-5.003 3.738-7.114 19.554-43.68 17.035-72.246 5.483-109.738-.484-1.113-1.706-3.78-1.706-3.78l-.48-.408a66.4 66.4 0 0 1-1.556-1.592l-.48-.519c-.52-.63-1.037-1.222-1.556-1.89l-.223-.296c-2.924-3.853-4.963-8.188-6.11-12.894-.705-2.815-1.073-5.632-1.073-8.373 0-6.15 1.628-12.188 4.74-17.56l-.036-3.261c-.04-4.593-.075-9.116-.04-13.449.076-8.93-3.775-17.414-10.554-23.268-2.701-2.186-4.664-5.186-5.664-8.556a20.174 20.174 0 0 1-.556-3.002c-.038-.334-.074-.595-.074-.853-.075-.445-.111-.704-.111-1.002 0-.332.036-.665.074-1 .073-.703.11-1.147.186-1.592.11-.63.22-1.223.37-1.852.147-.52.296-1.038.516-1.592.187-.483.372-.927.557-1.372.296-.592.63-1.223 1.001-1.852.185-.296.37-.557.555-.815.482-.704 1.037-1.334 1.629-1.964l.48-.483a15.778 15.778 0 0 1 2.076-1.704l.555-.37c.592-.445.926-.667 1.295-.852.964-.518 18.628-9.67 49.104-14.152-9.443 6.223-17.108 15.524-21.812 27.008-3.701 9.114-5.813 18.933-6.258 28.897l-.777 18.675a.926.926 0 0 0 .63.962c.37.113.777-.073.961-.481l3.48-7.003c2.817-5.667 7.557-9.89 13.185-11.82 3.518-1.183 7.333-.998 10.738.485l6.223 2.74c8.664 3.78 15.997 10.374 21.072 18.933l6.701 11.3h.037l6.666-11.3c5.074-8.559 12.443-15.154 21.072-18.932l6.22-2.741c3.445-1.483 7.222-1.668 10.74-.484 5.63 1.928 10.37 6.152 13.183 11.82l3.483 7.002c.22.408.592.594 1 .48a.941.941 0 0 0 .591-.961l-.779-18.675c-.443-9.964-2.552-19.783-6.258-28.897-4.7-11.484-12.367-20.785-21.811-27.008 30.515 4.481 48.18 13.634 49.143 14.152.405.223.739.445 1.11.704l.296.222a19.671 19.671 0 0 1 2.629 2.111c.926.965 1.556 1.706 2.074 2.485l.296.444c.519.777.926 1.518 1.26 2.333.147.26.258.556.369.852.261.742.48 1.408.668 2.15"/>
        <path fill="#FFC700" d="M281.528 361.87c.316-.671.557-1.172.557-1.172l.408-.372a27.498 27.498 0 0 0 1.74-1.78l.334-.37c.518-.591 1.037-1.184 1.517-1.851l.258-.296c2.537-3.34 4.364-7.064 5.565-11.056-5.91 5.867-14.006 9.533-22.988 9.533H157.556c-8.975 0-17.068-3.659-22.974-9.52 1.199 3.988 3.026 7.705 5.559 11.043l.222.296c.519.667 1.037 1.26 1.556 1.89l.48.52a66.4 66.4 0 0 0 1.556 1.59l.48.409s.23.5.524 1.146c5.635 4.642 12.84 7.443 20.714 7.443h95.13c7.88 0 15.088-2.805 20.725-7.452M206.503 312.607c-5.074-8.559-12.407-15.154-21.072-18.933l-6.223-2.74a14.921 14.921 0 0 0-10.738-.483c-5.629 1.928-10.369 6.151-13.185 11.818l-3.48 7.002 13.26-5.88a16.567 16.567 0 0 1 15.194.909l32.945 19.607-6.701-11.3zM271.16 302.27c-2.813-5.668-7.554-9.892-13.182-11.82-3.519-1.184-7.334-1-10.741.483l-6.22 2.741c-8.667 3.779-16 10.374-21.072 18.933l-6.704 11.3 32.947-19.607a16.567 16.567 0 0 1 15.195-.909l13.257 5.88-3.48-7.002z"/>
        <path fill="#FAF9FA" d="M271.122 302.27c-2.813-5.668-7.553-9.892-13.182-11.82-3.52-1.184-7.296-1-10.74.483l-6.22 2.741c-8.63 3.779-15.998 10.374-21.073 18.933l-6.666 11.3 6.777-13.82c3.964-8.077 9.924-14.82 17.184-19.376l4.999-3.149c4.629-2.928 8.481-7.152 11.146-12.264 2.15-4.112 3.037-8.855 2.594-13.56v-.073c-1.15-11.82-6.963-22.008-15.405-28.38 2.332.295 4.591.591 6.812.926 9.444 6.223 17.11 15.524 21.811 27.009 3.706 9.113 5.816 18.933 6.258 28.896l.78 18.674a.941.941 0 0 1-.592.962c-.408.114-.78-.072-1-.48l-3.483-7.003zM184.21 287.563l4.998 3.148c7.258 4.555 13.222 11.299 17.184 19.375l6.812 13.82-6.701-11.3c-5.074-8.558-12.407-15.153-21.072-18.931l-6.223-2.741a14.926 14.926 0 0 0-10.738-.484c-5.628 1.929-10.369 6.152-13.185 11.82l-3.48 7.001c-.184.408-.592.595-.961.481a.926.926 0 0 1-.63-.962l.776-18.673c.446-9.965 2.558-19.784 6.258-28.898 4.706-11.485 12.37-20.785 21.813-27.008 2.186-.334 4.48-.63 6.815-.926-8.405 6.372-14.259 16.561-15.405 28.38v.074c-.446 4.704.48 9.447 2.628 13.56 2.63 5.112 6.481 9.336 11.11 12.264"/>
        <path fill="#36102D" d="M280.57 458.176c-.37-1.013-.673-1.837-1.53-4.489a29.358 29.358 0 0 1-.364-1.28 24.168 24.168 0 0 0-.495-1.67 1.314 1.314 0 0 0-1.244-.886h-127.38a1.32 1.32 0 0 0-1.262.942c-1.019 3.427-1.662 5.226-2.397 7.283l-.888 2.516c-1.206 3.262-2.303 6.234-3.329 8.991h143.102a2177.526 2177.526 0 0 1-3.337-8.953 134.863 134.863 0 0 0-.877-2.454"/>
        <path fill="#FFB78B" d="M173.266 436.912a38.572 38.572 0 0 1 10.123 8.702l9.938 12.13a5.418 5.418 0 0 1-1.516 8.15 3.472 3.472 0 0 0-.97 5.214l.208.252a5.416 5.416 0 0 1-.76 7.626 5.413 5.413 0 0 1-6.934-.058 5.085 5.085 0 0 1-.683-.699 1.08 1.08 0 0 0-1.052-.374 1.08 1.08 0 0 0-.812.754 5.318 5.318 0 0 1-1.744 2.66c-2.314 1.9-5.718 1.543-7.625-.754a1.195 1.195 0 1 0-2.054.364 4.392 4.392 0 0 1-1.442 2.008c-1.927 1.507-4.694 1.162-6.218-.763l-6.883-8.805a4.893 4.893 0 0 0-7-.728c-10.011 8.42-21.34 11.637-27.969 7.126-8.388-5.714-6.078-21.643 5.17-35.58 21.512-26.65 21.312-23.208 48.223-7.225"/>
        <path fill="#FF8A8A" d="M291.856 105.626c-5.81-1.042-12.312 8.1-14.52 20.418-2.212 12.322.705 23.152 6.511 24.197 5.81 1.042 12.31-8.1 14.52-20.42 2.21-12.316-.706-23.15-6.511-24.195M134.548 105.626c5.806-1.042 12.31 8.1 14.52 20.418 2.21 12.322-.706 23.152-6.512 24.197-5.809 1.042-12.31-8.1-14.522-20.42-2.21-12.316.707-23.15 6.514-24.195"/>
        <path fill="#FFB78B" d="M288.924 115.285c0-53.189-13.646-96.3-75.725-96.3-62.073 0-75.72 43.111-75.72 96.3 0 53.19 33.902 96.312 75.72 96.312 41.817 0 75.725-43.122 75.725-96.312"/>
        <path fill="#FFA768" d="M253.012 138.342a7.57 7.57 0 0 0-10.235 3.155c-1.952 3.7-.54 8.286 3.155 10.24 1.764.933 4.597 3.386 4.757 4.651a7.571 7.571 0 1 0 15.022-1.91c-1.219-9.608-10.792-15.125-12.699-16.136M173.391 138.342c-1.907 1.01-11.48 6.528-12.702 16.136a7.574 7.574 0 0 0 7.521 8.532 7.574 7.574 0 0 0 7.502-6.622c.14-1.09 2.557-3.45 4.794-4.67a7.582 7.582 0 0 0 3.118-10.22c-1.958-3.7-6.534-5.116-10.233-3.156"/>
        <path fill="#E63E35" d="M232.936 158.368H193.47a4.502 4.502 0 0 0-3.305 1.427 4.178 4.178 0 0 0-1.1 3.325c1.378 11.555 11.611 20.424 23.845 20.424h.58c12.233 0 22.464-8.864 23.846-20.416a4.177 4.177 0 0 0-1.095-3.329 4.508 4.508 0 0 0-3.305-1.431"/>
        <path fill="#F4EEF2" d="M213.546 166.769c8.5 0 16.165-3.05 21.409-7.88-.624-.314-1.3-.521-2.02-.521H193.47c-.721 0-1.395.207-2.021.521 5.243 4.831 12.909 7.88 21.408 7.88h.69z"/>
        <path fill="#50322D" d="M142.555 150.24c-5.808 1.043-12.31-8.1-14.521-20.42a45.968 45.968 0 0 1-.737-7.822c-11.17 9.822-17.633 21.26-5.791 35.865 9.134 7.782 21.003 10.797 29.276 11.956-3.284-6.065-6.032-12.631-8.164-19.592l-.063.014zM159.261 182.874c-52.884 71.783-.924 108.974 16.146 136.096 3.463 5.503 10.568 25.242-5.557 30.946-9.05 3.202-17.199-5.932-17.199-5.932 18.185 30.774 65.689 7.189 67.545-31.855 2.043-43.012-52.4-72.98-44.971-113.504-5.867-4.336-11.235-9.643-15.964-15.751"/>
        <g transform="translate(117.303 .31)">
            <mask id="d" fill="#fff">
                <use xlink:href="#c"/>
            </mask>
            <path fill="#5A362F" d="M203.612 128.716c-.414-28.278-14.892-30.1-17.823-38.436-2.988-8.497 3.163-13.2 1.543-25.01-1.62-11.81-21.138-18.832-29.894-28.48C152.273 31.096 141.35-.03 112.65.588c-23.139.498-38.104 16.675-46.907 19.142-9.72 2.727-19.054-2.16-36.413 7.412C5.663 40.188-.7 63.269.147 72.727 1.324 85.88 14.167 92.464 6.18 99.542c9.03-7.22 27.312-6.64 29.01-16.519 1.696-9.877-1.62-21.916 16.12-34.822h-.003.003a77.32 77.32 0 0 1 4.093-4.466c2.944 11.854 22.258 18.177 39.384 21.652 35.045 7.106 79.735 12.003 93.622 56.846 10.711 34.593-28.115 71.415-58.64 78.901l-.001.002-.036.296c42.138-7.134 74.305-43.654 73.88-72.716" mask="url(#d)"/>
        </g>
        <g transform="translate(271.04 246.583)">
            <mask id="f" fill="#fff">
                <use xlink:href="#e"/>
            </mask>
            <path fill="#FFB78B" d="M142.344 88.257c5.236 6.148 8.415 13.952 8.832 22.129.576 11.395-4.262 22.612-12.944 30.008l-105.134 89.55c-6.229 5.307-15.579 4.556-20.882-1.676-5.3-6.23-4.552-15.586 1.678-20.89l105.134-89.55a7.372 7.372 0 0 0 2.561-5.943 7.386 7.386 0 0 0-3.148-5.642L25.485 42.115 22.74 29.564C51.962 18.824-3.662 13.95.983 7.209 5.628.47 14.853-1.223 21.585 3.424l113.673 78.418a36.613 36.613 0 0 1 7.086 6.415" mask="url(#f)"/>
        </g>
        <path fill="#FAF9FA" d="M363.455 342.37l-12.24-8.476c-1.158-.802-1.438-2.35-.66-3.476l.317-.458 19.812-28.635.296-.426a2.498 2.498 0 0 1 3.505-.638l12.238 8.476a2.52 2.52 0 0 1 .638 3.505l-.296.428-19.811 28.637-.316.455c-.78 1.127-2.356 1.388-3.483.608"/>
        <path fill="#FFDC00" d="M276.493 277.311c16.726-18.534-12.763-17.207-7.306-25.096 5.461-7.891 16.302-9.89 24.218-4.409l77.279 53.52-19.812 28.633-57.578-39.875-16.8-12.773z"/>
        <path fill="#FFB78B" d="M248.995 435.172a38.534 38.534 0 0 0-10.122 8.7l-9.938 12.132a5.415 5.415 0 0 0 .756 7.626c.243.197.497.372.759.524a3.469 3.469 0 0 1 .97 5.214l-.207.252a5.415 5.415 0 0 0 .76 7.625 5.413 5.413 0 0 0 7.618-.756 1.078 1.078 0 0 1 1.05-.375c.39.083.701.373.812.755a5.327 5.327 0 0 0 1.746 2.66c2.314 1.9 5.716 1.542 7.624-.754a1.2 1.2 0 0 1 1.135-.419c.426.076.777.375.919.782.27.768.753 1.47 1.442 2.008 1.928 1.507 4.693 1.163 6.218-.762l6.884-8.806a4.893 4.893 0 0 1 6.999-.727c10.011 8.419 21.339 11.636 27.97 7.125 8.386-5.713 6.077-21.643-5.171-35.579-21.512-26.65-21.313-23.208-48.224-7.225"/>
        <path fill="#000" d="M174.503 198.156c-6.09 0-16.999-1.03-25.035-7.56-10.77-8.752-13.538-38.028-13.651-39.27a2.222 2.222 0 0 1 4.424-.402c.724 7.944 4.293 29.935 12.028 36.221 10.023 8.143 26.129 6.399 26.29 6.38a2.22 2.22 0 0 1 2.461 1.95 2.221 2.221 0 0 1-1.947 2.464c-.22.026-1.949.217-4.57.217"/>
        <path fill="#000" d="M137.82 120.452c1.18 4.365 2.788 8.92 5.387 17.327 3.028 9.754 2.245 17.921-.448 18.14-6.953.564-13.404-11.435-15.2-18.412-4.468-17.379.543-30.172 2.954-31.54 4.217-2.413 4.949 5.764 7.307 14.485M183.919 187.917c-6.163 0-11.16 3.353-11.16 7.488 0 4.136 4.997 7.488 11.16 7.488s11.16-3.352 11.16-7.488c0-4.135-4.997-7.488-11.16-7.488M137.194 78.75a2.223 2.223 0 0 1-2.158-2.762c4.987-19.945 30.665-45.262 51.842-51.114 25.573-7.072 51.715-2.59 75.598 12.963a2.223 2.223 0 0 1-2.424 3.726c-22.786-14.838-47.68-19.13-71.99-12.404-19.548 5.402-44.133 29.579-48.715 47.906a2.222 2.222 0 0 1-2.153 1.684"/>
        <path fill="#00798B" d="M255.323 330h-.774c-.442 0-.696-.266-.696-.709v-.468c0-.443.254-.71.696-.71h.774c.442 0 .684.267.684.71v.468c0 .443-.242.71-.684.71zm-17.852 1.484v-.006c-1.366.092-1.893.97-1.893.97v-3.45c0-.721.313-1.438.918-1.933a2.458 2.458 0 0 1 1.548-.553h2.297a2.485 2.485 0 0 1 1.568 4.413 2.496 2.496 0 0 1-1.666.56H237.471zm26.81 1.627h2.784c-.039-.943-.48-1.45-1.392-1.45-.878 0-1.347.507-1.392 1.45zm-16.603 2.552c.287.078.782.136 1.295.136 1.179 0 1.594-.618 1.594-2.004 0-1.406-.415-2.024-1.555-2.024-.312 0-.82.091-1.334.253v3.64zm7.951 1.58h-1.38a.375.375 0 0 1-.384-.375v-5.858c0-.215.17-.378.384-.378h1.38a.37.37 0 0 1 .378.378v5.858a.37.37 0 0 1-.378.376zm16.375.021h-1.38a.37.37 0 0 1-.377-.378v-8.389c0-.215.162-.377.377-.377h1.38c.208 0 .376.162.376.377v8.39a.373.373 0 0 1-.376.377zm-12.778-4.953v2.181c0 .859.436 1.314 1.086 1.314.326 0 .566-.072.846-.072h.228a.37.37 0 0 1 .378.378v.657c0 .19-.164.339-.378.378-.383.078-1.074.124-1.646.124-1.77 0-2.648-.879-2.648-2.779v-5.995c0-.215.156-.384.378-.384h1.373c.22 0 .383.169.383.384v2.207h1.79a.37.37 0 0 1 .376.377v.852a.37.37 0 0 1-.377.378h-1.789zm5.061 2.11c.091 1.007.528 1.451 1.535 1.451.516 0 .97-.15 1.178-.417a.84.84 0 0 1 .69-.325h.891c.215 0 .37.162.37.377 0 1.315-1.313 1.77-3.278 1.77-2.18 0-3.493-1.217-3.493-3.501 0-2.278 1.327-3.515 3.493-3.515 2.186 0 3.5 1.198 3.5 3.424v.357a.363.363 0 0 1-.364.378h-4.522zm-18.748-5.924a.38.38 0 0 1 .383-.384h1.373a.38.38 0 0 1 .383.384v2.096c.515-.163 1.022-.313 1.777-.313 1.97 0 3.318 1.185 3.318 3.515 0 2.31-1.334 3.501-3.922 3.501-1.198 0-2.656-.318-3.312-.696v-8.103zm-7.878 9.307v-.005c-1.497.104-2.089 1.066-2.089 1.066v-3.801h.006c0-.8.345-1.588 1.01-2.128a2.764 2.764 0 0 1 1.71-.619h2.603c.793 0 1.58.353 2.126 1.016a2.75 2.75 0 0 1-.402 3.86c-.54.436-1.191.638-1.835.61h-3.129z"/>
        <path fill="#FF9559" d="M219.252 145.769c-2.217 1.254-6.096 2.007-6.096 2.007s-3.88-.753-6.097-2.007c-2.216-1.256-3.97-1.004-3.787 1.004.185 2.007 3.96 2.259 4.935 3.346.977 1.088 3.194 3.012 4.949 3.012 1.754 0 3.971-1.924 4.948-3.012.977-1.087 4.75-1.339 4.936-3.346.184-2.008-1.572-2.26-3.788-1.004"/>
        <path fill="#FFCEBE" d="M213.04 146.438c-2.595 0-4.558-.987-4.617-1.056-1.365-1.622 1.27-2.148 4.142-2.148 2.517 0 5.217.405 5.557.83.727.91-1.524 2.165-4.435 2.353-.22.015-.435.02-.648.02"/>
        <path fill="#FFF" d="M266.598 123.813s-8.125 10.358-14.725 9.555c-6.6-.805-18.774-3.849-18.018-5.503.756-1.653 6.04-13.793 16.195-12.468 10.153 1.325 19.306 8.381 16.548 8.416"/>
        <path fill="#000" d="M251.48 123.778c-3.3-.508-2.513-5.627.787-5.12 3.3.508 2.512 5.627-.787 5.12m20.855-7.007c-1.171 1.334-2.625 2.143-4.316 2.625.074-.023-.16.023-.191.029-.291.05-.578.113-.873.13-.692.042-1.365.039-2.053-.075-.38-.063-.754-.153-1.122-.259 1.255.05 2.63-.122 3.7-.72a7.626 7.626 0 0 0 1.971-1.555c.48-.527.867-1.13 1.257-1.725-.537.509-1.063 1.042-1.661 1.479-.587.427-1.283.907-2.005 1.065a8.924 8.924 0 0 1-4.777-.234 14.23 14.23 0 0 1-1.246-.476c.052.002.104.008.155.008 1.81.028 3.681-.58 5.097-1.724 1.256-1.016 1.823-2.409 1.974-3.983-.306.901-.679 1.753-1.327 2.465-.774.85-1.861 1.34-2.945 1.663-1.209.349-2.364.383-3.605.172-1.203-.204-2.374-.57-3.54-.926-1.523-.464-3.063-.925-4.659-1.048-1.905-.147-3.855.059-5.701.552-1.4.374-2.801.913-4.066 1.658a16.373 16.373 0 0 0-3.91 3.14c-1.232 1.345-2.274 2.92-3.182 4.498-.77 1.335-1.434 2.77-1.455 4.336.373-1.519 1.303-2.825 2.277-4.022.956-1.176 1.95-2.377 3.058-3.428a7.96 7.96 0 0 0-.517 1.563c-.594 2.722.287 5.566 2.198 7.57a9.117 9.117 0 0 0 2.222 1.698c-3.029-.948-6.018-2.14-8.994-2.928 1.486.838 2.999 1.658 4.542 2.413.79.564 1.667 1.006 2.548 1.417 1.458.681 2.932 1.422 4.465 1.919 1.603.519 3.214.981 4.9 1.125 1.324.112 2.647.043 3.971-.038-1.308-.126-2.62-.21-3.919-.405-1.485-.224-2.922-.658-4.343-1.128 2.558.621 5.204.837 7.787.34 1.26-.099 2.526-.631 3.651-1.115 1.11-.23 2.237-.244 3.361-.301a9.446 9.446 0 0 0-1.925-.345c.502-.234 1.001-.475 1.497-.73.767-.394 1.532-.77 2.394-.887-.478-.138-.973-.131-1.46-.052.21-.128.414-.246.602-.335a6.487 6.487 0 0 1 1.722-.608c.575-.116 1.16-.184 1.73-.322-.787-.087-1.595-.165-2.384-.081.294-.165.587-.325.894-.464.845-.386 1.724-.601 2.596-.898-.927-.318-1.904-.254-2.815.046.885-.859 1.804-1.643 3.089-1.824-1.698-.615-3.224.695-4.372 1.789a37.35 37.35 0 0 0-.813.824c-.545.479-1.103.94-1.702 1.36a14.874 14.874 0 0 1-5.109 2.3c-2.433.575-4.824.513-7.185.111a9.18 9.18 0 0 0 .605-.025c2.864-.218 5.58-1.791 7.043-4.288-2.27-1.089-1.438-4.878 1.079-4.914a7.752 7.752 0 0 0-.064-.489c-.008-.046-.018-.09-.025-.136l-.004-.02c-.373-2.056-1.533-3.903-3.153-5.21.336.074.672.148 1.01.228 2.127.552 4.057 1.712 6.053 2.597 1.732.769 3.583 1.371 5.5 1.316a9.148 9.148 0 0 0 4.178-1.12 8.843 8.843 0 0 0 3.541-3.65c.741-1.417 1.049-2.946 1.06-4.534-.46 1.686-1.145 3.26-2.31 4.586"/>
        <path fill="#FFF" d="M159.876 123.664s8.125 10.359 14.725 9.555c6.6-.805 18.773-3.849 18.019-5.503-.757-1.653-6.041-13.793-16.195-12.468-10.154 1.325-19.306 8.381-16.549 8.416"/>
        <path fill="#000" d="M174.208 118.51c3.3-.508 4.087 4.611.787 5.119s-4.087-4.612-.787-5.12m-22.379-6.473c.013 1.588.32 3.117 1.062 4.533a8.838 8.838 0 0 0 3.54 3.651 9.132 9.132 0 0 0 4.178 1.12c1.917.056 3.767-.547 5.5-1.315 1.997-.886 3.926-2.046 6.055-2.597.336-.08.672-.156 1.01-.228-1.62 1.306-2.781 3.154-3.155 5.21a.138.138 0 0 1-.003.02l-.025.136c-.024.146-.046.309-.064.489 2.517.034 3.348 3.824 1.078 4.914 1.463 2.496 4.18 4.068 7.042 4.288.203.015.404.022.607.024-2.362.402-4.753.465-7.185-.11a14.885 14.885 0 0 1-5.11-2.3 19.867 19.867 0 0 1-1.7-1.361 37.38 37.38 0 0 0-.814-.824c-1.148-1.094-2.674-2.403-4.372-1.789 1.284.181 2.203.966 3.088 1.824-.91-.3-1.888-.364-2.815-.046.872.297 1.752.512 2.595.897.309.14.602.3.894.464-.787-.082-1.596-.005-2.383.082.57.138 1.155.206 1.731.322a6.492 6.492 0 0 1 1.72.608c.189.089.393.206.604.334-.488-.078-.982-.086-1.46.054.861.117 1.627.492 2.394.886.496.255.994.496 1.496.73a9.498 9.498 0 0 0-1.924.345c1.124.057 2.251.072 3.36.3 1.125.485 2.392 1.018 3.652 1.115 2.58.497 5.229.282 7.787-.34-1.423.47-2.859.905-4.344 1.129-1.3.196-2.61.28-3.918.405 1.323.081 2.646.15 3.97.038 1.687-.143 3.298-.606 4.9-1.125 1.533-.497 3.007-1.238 4.466-1.919.881-.411 1.757-.854 2.547-1.417a88.128 88.128 0 0 0 4.542-2.413c-2.975.788-5.965 1.98-8.993 2.928a9.133 9.133 0 0 0 2.222-1.698c1.911-2.004 2.791-4.848 2.198-7.57a7.916 7.916 0 0 0-.518-1.563c1.108 1.051 2.102 2.252 3.059 3.429.974 1.196 1.903 2.501 2.277 4.02-.023-1.565-.687-3-1.455-4.335-.908-1.578-1.95-3.153-3.181-4.498a16.39 16.39 0 0 0-3.911-3.14c-1.265-.745-2.666-1.285-4.067-1.658-1.845-.493-3.795-.699-5.702-.552-1.596.123-3.134.585-4.658 1.049-1.165.354-2.337.72-3.54.925-1.24.21-2.396.177-3.605-.172-1.084-.323-2.17-.812-2.944-1.663-.649-.712-1.02-1.564-1.328-2.464.15 1.573.719 2.967 1.974 3.982 1.417 1.145 3.286 1.752 5.098 1.725.051-.001.103-.007.154-.008-.408.176-.82.338-1.246.475a8.925 8.925 0 0 1-4.776.234c-.722-.159-1.42-.638-2.005-1.065-.599-.436-1.124-.97-1.66-1.478.388.595.775 1.197 1.256 1.724a7.615 7.615 0 0 0 1.97 1.555c1.072.599 2.445.77 3.701.72a9.8 9.8 0 0 1-1.123.26c-.687.113-1.36.117-2.052.075-.295-.018-.583-.081-.874-.13-.03-.006-.265-.053-.192-.03-1.689-.481-3.144-1.292-4.314-2.626-1.165-1.325-1.85-2.899-2.31-4.585M196.628 109.81s-.14-.147-.418-.406c-.275-.26-.688-.634-1.231-1.083a37.427 37.427 0 0 0-2.013-1.553 45.477 45.477 0 0 0-2.744-1.82 48.76 48.76 0 0 0-1.627-.947 23.765 23.765 0 0 0-.872-.471c-.297-.159-.602-.312-.911-.47a44.148 44.148 0 0 0-3.991-1.761 40.561 40.561 0 0 0-4.467-1.43 35.665 35.665 0 0 0-4.8-.9 28.925 28.925 0 0 0-4.933-.173c-1.637.08-3.253.31-4.784.703-1.53.39-2.975.93-4.272 1.588-.647.332-1.263.68-1.834 1.056-.29.177-.557.386-.826.573-.27.186-.522.39-.766.59-.973.803-1.792 1.616-2.438 2.4-.168.188-.315.386-.46.572-.145.186-.284.366-.411.543-.245.364-.474.689-.662.997-.184.31-.347.587-.482.83-.137.243-.236.46-.323.632-.168.346-.252.53-.252.53l.443-.374c.145-.121.315-.278.523-.45.211-.17.45-.366.714-.585l.899-.69.52-.366c.18-.128.36-.263.559-.385.198-.125.398-.257.602-.392.21-.13.43-.255.65-.386.22-.135.452-.257.689-.386l.356-.193c.122-.063.248-.12.373-.181.254-.117.5-.255.768-.363.266-.112.526-.242.808-.34a20.787 20.787 0 0 1 1.72-.61 24.83 24.83 0 0 1 3.814-.843c1.34-.193 2.743-.273 4.176-.272.715-.007 1.44.031 2.168.067.728.054 1.462.108 2.194.2 1.467.167 2.936.406 4.38.7a75.09 75.09 0 0 1 4.24.99c1.373.36 2.702.743 3.962 1.127.631.19 1.241.387 1.835.577.595.185 1.165.382 1.718.562 1.102.367 2.113.717 3.013 1.03.901.32 1.689.6 2.337.828l2.056.736m33.228 0s.14-.148.416-.407c.277-.26.69-.634 1.233-1.083.543-.452 1.217-.98 2.014-1.553a44.88 44.88 0 0 1 2.743-1.82c.514-.316 1.06-.628 1.626-.947.283-.163.575-.317.873-.471.297-.159.602-.312.91-.47a44.038 44.038 0 0 1 3.992-1.761 40.516 40.516 0 0 1 4.467-1.43 35.665 35.665 0 0 1 4.799-.9 28.9 28.9 0 0 1 4.933-.173c1.637.08 3.253.31 4.784.703 1.531.39 2.976.93 4.273 1.588.647.332 1.263.68 1.833 1.056.29.177.557.386.827.573.27.186.521.39.765.59.975.803 1.793 1.616 2.439 2.4.168.188.315.386.46.572.144.186.283.366.41.543.245.364.475.689.663.997.185.31.347.587.482.83.136.243.235.46.321.632.17.346.253.53.253.53l-.444-.374c-.144-.121-.313-.278-.521-.45-.213-.17-.451-.366-.715-.585l-.898-.69-.52-.366c-.179-.128-.36-.263-.56-.385-.198-.125-.397-.257-.602-.392-.21-.13-.428-.255-.65-.386-.219-.135-.452-.257-.687-.386l-.357-.193c-.123-.063-.248-.12-.374-.181-.253-.117-.5-.255-.767-.363-.266-.112-.527-.242-.808-.34a20.693 20.693 0 0 0-1.721-.61 24.795 24.795 0 0 0-3.814-.843c-1.34-.193-2.743-.273-4.175-.272-.716-.007-1.441.031-2.169.067-.729.054-1.46.108-2.194.2a50.825 50.825 0 0 0-4.38.7 74.88 74.88 0 0 0-4.238.99 107.78 107.78 0 0 0-3.963 1.127c-.631.19-1.242.387-1.836.577-.596.185-1.165.382-1.717.562-1.103.367-2.114.717-3.013 1.03-.903.32-1.688.6-2.337.828l-2.056.736m-38.134-1.628l.09.052c.798.466 1.592.89 2.451 1.194a2.675 2.675 0 0 1-.862-.16c-.546-.2-1.03-.528-1.496-.87l-.183-.216"/>
        <path fill="#754841" d="M127.297 121.999c3.126-2.748 6.619-5.371 10.182-7.9 11.83-8.393 24.43-15.765 26.894-23.356 4.293-13.221-14.063-20.524 4.237-42.231h.003c-17.74 12.905-14.424 24.944-16.12 34.822-1.699 9.88-19.981 9.298-29.01 16.519-5.4 4.785-20.983 12.658-13.88 39.13 2.232 8.323 6.64 14.45 11.973 18.966l-.007-.009-.063-.078c-11.842-14.604-5.378-26.042 5.791-35.863M231.956 84.57c48.526 11.81 57.862 62.364 39.346 92.465l.004.005-.002.002c-6.642 10.103-14.887 18.446-24.232 24.402 30.524-7.486 69.351-44.307 58.64-78.9-13.888-44.844-58.577-49.74-93.622-56.847-17.127-3.474-36.44-9.798-39.385-21.652-3.114 15.63 22.846 31.664 59.251 40.524"/>
        <g>
            <g transform="translate(0 248.362)">
                <mask id="h" fill="#fff">
                    <use xlink:href="#g"/>
                </mask>
                <path fill="#FFB78B" d="M8.877 88.22C3.643 94.366.462 102.17.045 110.346c-.575 11.397 4.262 22.614 12.945 30.008l105.134 89.552c6.228 5.306 15.579 4.556 20.882-1.677 5.301-6.23 4.551-15.586-1.678-20.89L32.194 117.789a7.369 7.369 0 0 1-2.562-5.94 7.39 7.39 0 0 1 3.15-5.644l113.672-78.42c6.729-4.647 8.429-13.872 3.784-20.615-4.644-6.737-13.87-8.432-20.602-3.784L15.964 81.805a36.668 36.668 0 0 0-7.087 6.414" mask="url(#h)"/>
            </g>
            <path fill="#FAF9FA" d="M58.084 344.087l12.24-8.477c1.158-.802 1.44-2.349.66-3.475l-.316-.459-19.813-28.634-.296-.426a2.497 2.497 0 0 0-3.505-.638l-12.238 8.476a2.521 2.521 0 0 0-.638 3.505l.296.427 19.811 28.637.317.456c.781 1.127 2.356 1.387 3.482.608"/>
            <path fill="#FFDC00" d="M147.946 278.157c7.916-5.482 9.864-16.336 4.406-24.225-5.46-7.892-16.302-9.891-24.218-4.41l-77.279 53.52 19.813 28.634 77.278-53.519z"/>
            <path fill="#FFB78B" d="M255.941 261.738c.443 4.705-.445 9.447-2.595 13.56-2.664 5.112-6.516 9.336-11.145 12.264l-4.999 3.148c-7.26 4.556-13.22 11.3-17.184 19.377l-6.777 13.82h-.037l-6.812-13.82c-3.962-8.077-9.927-14.821-17.184-19.377l-4.999-3.148c-4.629-2.928-8.48-7.152-11.11-12.264-2.148-4.113-3.074-8.855-2.629-13.56v-.074c1.147-11.818 7-22.007 15.406-28.38a237.03 237.03 0 0 1 27.328-1.556c9.888 0 19.035.593 27.332 1.556 8.442 6.373 14.254 16.562 15.405 28.38v.074z"/>
            <path fill="#FAF9FA" d="M217.502 225.616l-4.222.111h-.076l-4.295-.11c-10.739-.335-21.072 2.776-29.848 8.594 2.186-.335 4.48-.63 6.815-.927a237.03 237.03 0 0 1 27.328-1.556c9.888 0 19.035.593 27.332 1.556 2.332.296 4.591.592 6.812.927-8.777-5.818-19.109-8.93-29.846-8.595"/>
            <path fill="#FA9" d="M233.605 234.308c0 11.254-9.12 20.376-20.368 20.376-11.247 0-20.369-9.122-20.369-20.376 0-11.255 9.122-20.377 20.37-20.377 11.247 0 20.367 9.122 20.367 20.377"/>
            <path fill="#FFB78B" d="M213.219 275.619c-12.868 0-23.3-10.436-23.3-23.308v-66.244c0-12.875 10.432-23.313 23.3-23.313 12.867 0 23.3 10.438 23.3 23.313v66.244c0 12.872-10.433 23.308-23.3 23.308"/>
            <path fill="#FFA670" d="M213.219 162.754c-12.868 0-23.3 10.439-23.3 23.313v34.091c7.422 2.559 15.228 3.96 23.298 3.96 8.075 0 15.881-1.401 23.302-3.962v-34.089c0-12.874-10.433-23.313-23.3-23.313"/>
            <path fill="#FA9" d="M303.155 263.827c0 8.184-6.633 14.82-14.814 14.82-8.181 0-14.813-6.636-14.813-14.82 0-8.185 6.632-14.82 14.813-14.82 8.18 0 14.814 6.635 14.814 14.82M152.889 263.827c0 8.184-6.63 14.82-14.81 14.82-8.183 0-14.815-6.636-14.815-14.82 0-8.185 6.632-14.82 14.814-14.82 8.181 0 14.81 6.635 14.81 14.82M290.907 334.76c0 18.066-14.64 32.711-32.695 32.711h-89.947c-18.058 0-32.698-14.645-32.698-32.712 0-18.066 14.64-32.712 32.698-32.712h89.947c18.055 0 32.695 14.646 32.695 32.712"/>
            <path fill="#FF8A8A" d="M266.326 352.653H160.149c-9.294 0-17.662-3.9-23.616-10.128 3.49 14.312 16.354 24.946 31.732 24.946h89.946c15.377 0 28.24-10.634 31.73-24.946-5.953 6.228-14.322 10.128-23.615 10.128M186.773 235.79c-1.52.17-2.955.378-4.418.573-6.487 6.354-10.904 15.222-11.884 25.302v.074c-.446 4.704.48 9.447 2.628 13.559 2.63 5.112 6.481 9.336 11.11 12.265l4.503 2.834c-15.017-18.412-8.141-41.816-1.94-54.608"/>
            <path fill="#FFA670" d="M253.347 275.298c2.15-4.112 3.037-8.855 2.594-13.56v-.073c-.979-10.08-5.374-18.951-11.875-25.304-1.471-.195-2.914-.404-4.44-.579 6.207 12.794 13.083 36.21-1.946 54.629l4.521-2.849c4.629-2.928 8.481-7.152 11.146-12.264"/>
            <path fill="#FFDC00" d="M305.193 259.663c.111.407.185.853.258 1.296a16.9 16.9 0 0 1 .223 1.89c.037.408.073.704.073.962l-.073.744c0 .516-.074.962-.15 1.443-.073.741-.22 1.52-.405 2.262l-.149.516a22.484 22.484 0 0 1-1.148 2.89l-.296.519c-.371.704-.963 1.595-1.592 2.445-.778.926-1.555 1.743-2.445 2.483-6.85 5.854-10.776 14.374-10.665 23.379.037 4.333 0 8.78-.038 13.338l-.036 3.297c3.112 5.409 4.741 11.447 4.741 17.635 0 2.741-.334 5.558-1.037 8.373-1.149 4.706-3.185 9.041-6.112 12.894l-.258.296c-.48.668-1 1.26-1.517 1.852l-.335.37a27.498 27.498 0 0 1-1.74 1.779l-.407.372s-1.295 2.703-1.89 4.075c-11.441 37.233-13.96 65.8 5.593 109.48.962 2.11 2.26 4.407 3.74 7.113 5.63 10.04 14.072 25.232 14.072 48.794 0 2.149 0 4.224-.038 6.26-81.136-1.11-89.837-37.455-89.837-37.455h-.038s-8.778 36.679-90.802 37.456c-.036-2.037-.036-4.112-.036-6.261 0-23.6 8.441-38.754 14.072-48.794 1.48-2.706 2.778-5.003 3.738-7.114 19.554-43.68 17.035-72.246 5.483-109.738-.484-1.113-1.706-3.78-1.706-3.78l-.48-.408a66.4 66.4 0 0 1-1.556-1.592l-.48-.519c-.52-.63-1.037-1.222-1.556-1.89l-.223-.296c-2.924-3.853-4.963-8.188-6.11-12.894-.705-2.815-1.073-5.632-1.073-8.373 0-6.15 1.628-12.188 4.74-17.56l-.036-3.261c-.04-4.593-.075-9.116-.04-13.449.076-8.93-3.775-17.414-10.554-23.268-2.701-2.186-4.664-5.186-5.664-8.556a20.174 20.174 0 0 1-.556-3.002c-.038-.334-.074-.595-.074-.853-.075-.445-.111-.704-.111-1.002 0-.332.036-.665.074-1 .073-.703.11-1.147.186-1.592.11-.63.22-1.223.37-1.852.147-.52.296-1.038.516-1.592.187-.483.372-.927.557-1.372.296-.592.63-1.223 1.001-1.852.185-.296.37-.557.555-.815.482-.704 1.037-1.334 1.629-1.964l.48-.483a15.778 15.778 0 0 1 2.076-1.704l.555-.37c.592-.445.926-.667 1.295-.852.964-.518 18.628-9.67 49.104-14.152-9.443 6.223-17.108 15.524-21.812 27.008-3.701 9.114-5.813 18.933-6.258 28.897l-.777 18.675a.926.926 0 0 0 .63.962c.37.113.777-.073.961-.481l3.48-7.003c2.817-5.667 7.557-9.89 13.185-11.82 3.518-1.183 7.333-.998 10.738.485l6.223 2.74c8.664 3.78 15.997 10.374 21.072 18.933l6.701 11.3h.037l6.666-11.3c5.074-8.559 12.443-15.154 21.072-18.932l6.22-2.741c3.445-1.483 7.222-1.668 10.74-.484 5.63 1.928 10.37 6.152 13.183 11.82l3.483 7.002c.22.408.592.594 1 .48a.941.941 0 0 0 .591-.961l-.779-18.675c-.443-9.964-2.552-19.783-6.258-28.897-4.7-11.484-12.367-20.785-21.811-27.008 30.515 4.481 48.18 13.634 49.143 14.152.405.223.739.445 1.11.704l.296.222a19.671 19.671 0 0 1 2.629 2.111c.926.965 1.556 1.706 2.074 2.485l.296.444c.519.777.926 1.518 1.26 2.333.147.26.258.556.369.852.261.742.48 1.408.668 2.15"/>
            <path fill="#FFC700" d="M281.528 361.87c.316-.671.557-1.172.557-1.172l.408-.372a27.498 27.498 0 0 0 1.74-1.78l.334-.37c.518-.591 1.037-1.184 1.517-1.851l.258-.296c2.537-3.34 4.364-7.064 5.565-11.056-5.91 5.867-14.006 9.533-22.988 9.533H157.556c-8.975 0-17.068-3.659-22.974-9.52 1.199 3.988 3.026 7.705 5.559 11.043l.222.296c.519.667 1.037 1.26 1.556 1.89l.48.52a66.4 66.4 0 0 0 1.556 1.59l.48.409s.23.5.524 1.146c5.635 4.642 12.84 7.443 20.714 7.443h95.13c7.88 0 15.088-2.805 20.725-7.452M206.503 312.607c-5.074-8.559-12.407-15.154-21.072-18.933l-6.223-2.74a14.921 14.921 0 0 0-10.738-.483c-5.629 1.928-10.369 6.151-13.185 11.818l-3.48 7.002 13.26-5.88a16.567 16.567 0 0 1 15.194.909l32.945 19.607-6.701-11.3zM271.16 302.27c-2.813-5.668-7.554-9.892-13.182-11.82-3.519-1.184-7.334-1-10.741.483l-6.22 2.741c-8.667 3.779-16 10.374-21.072 18.933l-6.704 11.3 32.947-19.607a16.567 16.567 0 0 1 15.195-.909l13.257 5.88-3.48-7.002z"/>
            <path fill="#FAF9FA" d="M271.122 302.27c-2.813-5.668-7.553-9.892-13.182-11.82-3.52-1.184-7.296-1-10.74.483l-6.22 2.741c-8.63 3.779-15.998 10.374-21.073 18.933l-6.666 11.3 6.777-13.82c3.964-8.077 9.924-14.82 17.184-19.376l4.999-3.149c4.629-2.928 8.481-7.152 11.146-12.264 2.15-4.112 3.037-8.855 2.594-13.56v-.073c-1.15-11.82-6.963-22.008-15.405-28.38 2.332.295 4.591.591 6.812.926 9.444 6.223 17.11 15.524 21.811 27.009 3.706 9.113 5.816 18.933 6.258 28.896l.78 18.674a.941.941 0 0 1-.592.962c-.408.114-.78-.072-1-.48l-3.483-7.003zM184.21 287.563l4.998 3.148c7.258 4.555 13.222 11.299 17.184 19.375l6.812 13.82-6.701-11.3c-5.074-8.558-12.407-15.153-21.072-18.931l-6.223-2.741a14.926 14.926 0 0 0-10.738-.484c-5.628 1.929-10.369 6.152-13.185 11.82l-3.48 7.001c-.184.408-.592.595-.961.481a.926.926 0 0 1-.63-.962l.776-18.673c.446-9.965 2.558-19.784 6.258-28.898 4.706-11.485 12.37-20.785 21.813-27.008 2.186-.334 4.48-.63 6.815-.926-8.405 6.372-14.259 16.561-15.405 28.38v.074c-.446 4.704.48 9.447 2.628 13.56 2.63 5.112 6.481 9.336 11.11 12.264"/>
            <path fill="#36102D" d="M280.57 458.176c-.37-1.013-.673-1.837-1.53-4.489a29.358 29.358 0 0 1-.364-1.28 24.168 24.168 0 0 0-.495-1.67 1.314 1.314 0 0 0-1.244-.886h-127.38a1.32 1.32 0 0 0-1.262.942c-1.019 3.427-1.662 5.226-2.397 7.283l-.888 2.516c-1.206 3.262-2.303 6.234-3.329 8.991h143.102a2177.526 2177.526 0 0 1-3.337-8.953 134.863 134.863 0 0 0-.877-2.454"/>
            <path fill="#FFB78B" d="M173.266 436.912a38.572 38.572 0 0 1 10.123 8.702l9.938 12.13a5.418 5.418 0 0 1-1.516 8.15 3.472 3.472 0 0 0-.97 5.214l.208.252a5.416 5.416 0 0 1-.76 7.626 5.413 5.413 0 0 1-6.934-.058 5.085 5.085 0 0 1-.683-.699 1.08 1.08 0 0 0-1.052-.374 1.08 1.08 0 0 0-.812.754 5.318 5.318 0 0 1-1.744 2.66c-2.314 1.9-5.718 1.543-7.625-.754a1.195 1.195 0 1 0-2.054.364 4.392 4.392 0 0 1-1.442 2.008c-1.927 1.507-4.694 1.162-6.218-.763l-6.883-8.805a4.893 4.893 0 0 0-7-.728c-10.011 8.42-21.34 11.637-27.969 7.126-8.388-5.714-6.078-21.643 5.17-35.58 21.512-26.65 21.312-23.208 48.223-7.225"/>
            <path fill="#FF8A8A" d="M291.856 105.626c-5.81-1.042-12.312 8.1-14.52 20.418-2.212 12.322.705 23.152 6.511 24.197 5.81 1.042 12.31-8.1 14.52-20.42 2.21-12.316-.706-23.15-6.511-24.195M134.548 105.626c5.806-1.042 12.31 8.1 14.52 20.418 2.21 12.322-.706 23.152-6.512 24.197-5.809 1.042-12.31-8.1-14.522-20.42-2.21-12.316.707-23.15 6.514-24.195"/>
            <path fill="#FFB78B" d="M288.924 115.285c0-53.189-13.646-96.3-75.725-96.3-62.073 0-75.72 43.111-75.72 96.3 0 53.19 33.902 96.312 75.72 96.312 41.817 0 75.725-43.122 75.725-96.312"/>
            <path d="M253.012 138.342a7.57 7.57 0 0 0-10.235 3.155c-1.952 3.7-.54 8.286 3.155 10.24 1.764.933 4.597 3.386 4.757 4.651a7.571 7.571 0 1 0 15.022-1.91c-1.219-9.608-10.792-15.125-12.699-16.136M173.391 138.342c-1.907 1.01-11.48 6.528-12.702 16.136a7.574 7.574 0 0 0 7.521 8.532 7.574 7.574 0 0 0 7.502-6.622c.14-1.09 2.557-3.45 4.794-4.67a7.582 7.582 0 0 0 3.118-10.22c-1.958-3.7-6.534-5.116-10.233-3.156" opacity=".446"/>
            <path fill="#E63E35" d="M232.936 158.368H193.47a4.502 4.502 0 0 0-3.305 1.427 4.178 4.178 0 0 0-1.1 3.325c1.378 11.555 11.611 20.424 23.845 20.424h.58c12.233 0 22.464-8.864 23.846-20.416a4.177 4.177 0 0 0-1.095-3.329 4.508 4.508 0 0 0-3.305-1.431"/>
            <path fill="#F4EEF2" d="M213.546 166.769c8.5 0 16.165-3.05 21.409-7.88-.624-.314-1.3-.521-2.02-.521H193.47c-.721 0-1.395.207-2.021.521 5.243 4.831 12.909 7.88 21.408 7.88h.69z"/>
            <path fill="#50322D" d="M142.555 150.24c-5.808 1.043-12.31-8.1-14.521-20.42a45.968 45.968 0 0 1-.737-7.822c-11.17 9.822-17.633 21.26-5.791 35.865 9.134 7.782 21.003 10.797 29.276 11.956-3.284-6.065-6.032-12.631-8.164-19.592l-.063.014zM159.261 182.874c-52.884 71.783-.924 108.974 16.146 136.096 3.463 5.503 10.568 25.242-5.557 30.946-9.05 3.202-17.199-5.932-17.199-5.932 18.185 30.774 65.689 7.189 67.545-31.855 2.043-43.012-52.4-72.98-44.971-113.504-5.867-4.336-11.235-9.643-15.964-15.751"/>
            <path fill="#5A362F" d="M320.915 129.026c-.414-28.278-14.892-30.1-17.823-38.436-2.989-8.497 3.163-13.2 1.543-25.01-1.621-11.81-21.139-18.832-29.895-28.48C269.575 31.406 258.654.28 229.954.898c-23.14.499-38.104 16.675-46.907 19.143-9.721 2.726-19.055-2.16-36.414 7.41-23.667 13.047-30.03 36.128-29.184 45.586 1.178 13.153 14.02 19.738 6.033 26.816 9.03-7.221 27.312-6.64 29.011-16.52 1.696-9.877-1.62-21.916 16.12-34.822h-.003.003a77.32 77.32 0 0 1 4.093-4.465c2.944 11.854 22.258 18.177 39.383 21.651 35.046 7.107 79.736 12.004 93.623 56.847 10.71 34.593-28.116 71.414-58.64 78.9l-.002.002-.035.296c42.138-7.134 74.305-43.654 73.88-72.716"/>
            <g transform="translate(271.04 246.583)">
                <mask id="j" fill="#fff">
                    <use xlink:href="#i"/>
                </mask>
                <path fill="#FFB78B" d="M142.344 88.257c5.236 6.148 8.415 13.952 8.832 22.129.576 11.395-4.262 22.612-12.944 30.008l-105.134 89.55c-6.229 5.307-15.579 4.556-20.882-1.676-5.3-6.23-4.552-15.586 1.678-20.89l105.134-89.55a7.372 7.372 0 0 0 2.561-5.943 7.386 7.386 0 0 0-3.148-5.642L25.485 42.115 22.74 29.564C51.962 18.824-3.662 13.95.983 7.209 5.628.47 14.853-1.223 21.585 3.424l113.673 78.418a36.613 36.613 0 0 1 7.086 6.415" mask="url(#j)"/>
            </g>
            <path fill="#FAF9FA" d="M363.455 342.37l-12.24-8.476c-1.158-.802-1.438-2.35-.66-3.476l.317-.458 19.812-28.635.296-.426a2.498 2.498 0 0 1 3.505-.638l12.238 8.476a2.52 2.52 0 0 1 .638 3.505l-.296.428-19.811 28.637-.316.455c-.78 1.127-2.356 1.388-3.483.608"/>
            <path fill="#FFDC00" d="M276.493 277.311c16.726-18.534-12.763-17.207-7.306-25.096 5.461-7.891 16.302-9.89 24.218-4.409l77.279 53.52-19.812 28.633-57.578-39.875-16.8-12.773z"/>
            <path fill="#FFB78B" d="M248.995 435.172a38.534 38.534 0 0 0-10.122 8.7l-9.938 12.132a5.415 5.415 0 0 0 .756 7.626c.243.197.497.372.759.524a3.469 3.469 0 0 1 .97 5.214l-.207.252a5.415 5.415 0 0 0 .76 7.625 5.413 5.413 0 0 0 7.618-.756 1.078 1.078 0 0 1 1.05-.375c.39.083.701.373.812.755a5.327 5.327 0 0 0 1.746 2.66c2.314 1.9 5.716 1.542 7.624-.754a1.2 1.2 0 0 1 1.135-.419c.426.076.777.375.919.782.27.768.753 1.47 1.442 2.008 1.928 1.507 4.693 1.163 6.218-.762l6.884-8.806a4.893 4.893 0 0 1 6.999-.727c10.011 8.419 21.339 11.636 27.97 7.125 8.386-5.713 6.077-21.643-5.171-35.579-21.512-26.65-21.313-23.208-48.224-7.225"/>
            <path fill="#000" d="M174.503 198.156c-6.09 0-16.999-1.03-25.035-7.56-10.77-8.752-13.538-38.028-13.651-39.27a2.222 2.222 0 0 1 4.424-.402c.724 7.944 4.293 29.935 12.028 36.221 10.023 8.143 26.129 6.399 26.29 6.38a2.22 2.22 0 0 1 2.461 1.95 2.221 2.221 0 0 1-1.947 2.464c-.22.026-1.949.217-4.57.217"/>
            <path fill="#000" d="M137.82 120.452c1.18 4.365 2.788 8.92 5.387 17.327 3.028 9.754 2.245 17.921-.448 18.14-6.953.564-13.404-11.435-15.2-18.412-4.468-17.379.543-30.172 2.954-31.54 4.217-2.413 4.949 5.764 7.307 14.485M183.919 187.917c-6.163 0-11.16 3.353-11.16 7.488 0 4.136 4.997 7.488 11.16 7.488s11.16-3.352 11.16-7.488c0-4.135-4.997-7.488-11.16-7.488M137.194 78.75a2.223 2.223 0 0 1-2.158-2.762c4.987-19.945 30.665-45.262 51.842-51.114 25.573-7.072 51.715-2.59 75.598 12.963a2.223 2.223 0 0 1-2.424 3.726c-22.786-14.838-47.68-19.13-71.99-12.404-19.548 5.402-44.133 29.579-48.715 47.906a2.222 2.222 0 0 1-2.153 1.684"/>
            <path fill="#00798B" d="M255.323 330h-.774c-.442 0-.696-.266-.696-.709v-.468c0-.443.254-.71.696-.71h.774c.442 0 .684.267.684.71v.468c0 .443-.242.71-.684.71zm-17.852 1.484v-.006c-1.366.092-1.893.97-1.893.97v-3.45c0-.721.313-1.438.918-1.933a2.458 2.458 0 0 1 1.548-.553h2.297a2.485 2.485 0 0 1 1.568 4.413 2.496 2.496 0 0 1-1.666.56H237.471zm26.81 1.627h2.784c-.039-.943-.48-1.45-1.392-1.45-.878 0-1.347.507-1.392 1.45zm-16.603 2.552c.287.078.782.136 1.295.136 1.179 0 1.594-.618 1.594-2.004 0-1.406-.415-2.024-1.555-2.024-.312 0-.82.091-1.334.253v3.64zm7.951 1.58h-1.38a.375.375 0 0 1-.384-.375v-5.858c0-.215.17-.378.384-.378h1.38a.37.37 0 0 1 .378.378v5.858a.37.37 0 0 1-.378.376zm16.375.021h-1.38a.37.37 0 0 1-.377-.378v-8.389c0-.215.162-.377.377-.377h1.38c.208 0 .376.162.376.377v8.39a.373.373 0 0 1-.376.377zm-12.778-4.953v2.181c0 .859.436 1.314 1.086 1.314.326 0 .566-.072.846-.072h.228a.37.37 0 0 1 .378.378v.657c0 .19-.164.339-.378.378-.383.078-1.074.124-1.646.124-1.77 0-2.648-.879-2.648-2.779v-5.995c0-.215.156-.384.378-.384h1.373c.22 0 .383.169.383.384v2.207h1.79a.37.37 0 0 1 .376.377v.852a.37.37 0 0 1-.377.378h-1.789zm5.061 2.11c.091 1.007.528 1.451 1.535 1.451.516 0 .97-.15 1.178-.417a.84.84 0 0 1 .69-.325h.891c.215 0 .37.162.37.377 0 1.315-1.313 1.77-3.278 1.77-2.18 0-3.493-1.217-3.493-3.501 0-2.278 1.327-3.515 3.493-3.515 2.186 0 3.5 1.198 3.5 3.424v.357a.363.363 0 0 1-.364.378h-4.522zm-18.748-5.924a.38.38 0 0 1 .383-.384h1.373a.38.38 0 0 1 .383.384v2.096c.515-.163 1.022-.313 1.777-.313 1.97 0 3.318 1.185 3.318 3.515 0 2.31-1.334 3.501-3.922 3.501-1.198 0-2.656-.318-3.312-.696v-8.103zm-7.878 9.307v-.005c-1.497.104-2.089 1.066-2.089 1.066v-3.801h.006c0-.8.345-1.588 1.01-2.128a2.764 2.764 0 0 1 1.71-.619h2.603c.793 0 1.58.353 2.126 1.016a2.75 2.75 0 0 1-.402 3.86c-.54.436-1.191.638-1.835.61h-3.129z"/>
            <path fill="#FF9559" d="M219.252 145.769c-2.217 1.254-6.096 2.007-6.096 2.007s-3.88-.753-6.097-2.007c-2.216-1.256-3.97-1.004-3.787 1.004.185 2.007 3.96 2.259 4.935 3.346.977 1.088 3.194 3.012 4.949 3.012 1.754 0 3.971-1.924 4.948-3.012.977-1.087 4.75-1.339 4.936-3.346.184-2.008-1.572-2.26-3.788-1.004"/>
            <path fill="#FFCEBE" d="M213.04 146.438c-2.595 0-4.558-.987-4.617-1.056-1.365-1.622 1.27-2.148 4.142-2.148 2.517 0 5.217.405 5.557.83.727.91-1.524 2.165-4.435 2.353-.22.015-.435.02-.648.02"/>
            <path fill="#000" d="M196.628 109.81s-.14-.147-.418-.406c-.275-.26-.688-.634-1.231-1.083a37.427 37.427 0 0 0-2.013-1.553 45.477 45.477 0 0 0-2.744-1.82 48.76 48.76 0 0 0-1.627-.947 23.765 23.765 0 0 0-.872-.471c-.297-.159-.602-.312-.911-.47a44.148 44.148 0 0 0-3.991-1.761 40.561 40.561 0 0 0-4.467-1.43 35.665 35.665 0 0 0-4.8-.9 28.925 28.925 0 0 0-4.933-.173c-1.637.08-3.253.31-4.784.703-1.53.39-2.975.93-4.272 1.588-.647.332-1.263.68-1.834 1.056-.29.177-.557.386-.826.573-.27.186-.522.39-.766.59-.973.803-1.792 1.616-2.438 2.4-.168.188-.315.386-.46.572-.145.186-.284.366-.411.543-.245.364-.474.689-.662.997-.184.31-.347.587-.482.83-.137.243-.236.46-.323.632-.168.346-.252.53-.252.53l.443-.374c.145-.121.315-.278.523-.45.211-.17.45-.366.714-.585l.899-.69.52-.366c.18-.128.36-.263.559-.385.198-.125.398-.257.602-.392.21-.13.43-.255.65-.386.22-.135.452-.257.689-.386l.356-.193c.122-.063.248-.12.373-.181.254-.117.5-.255.768-.363.266-.112.526-.242.808-.34a20.787 20.787 0 0 1 1.72-.61 24.83 24.83 0 0 1 3.814-.843c1.34-.193 2.743-.273 4.176-.272.715-.007 1.44.031 2.168.067.728.054 1.462.108 2.194.2 1.467.167 2.936.406 4.38.7a75.09 75.09 0 0 1 4.24.99c1.373.36 2.702.743 3.962 1.127.631.19 1.241.387 1.835.577.595.185 1.165.382 1.718.562 1.102.367 2.113.717 3.013 1.03.901.32 1.689.6 2.337.828l2.056.736m33.228 0s.14-.148.416-.407c.277-.26.69-.634 1.233-1.083.543-.452 1.217-.98 2.014-1.553a44.88 44.88 0 0 1 2.743-1.82c.514-.316 1.06-.628 1.626-.947.283-.163.575-.317.873-.471.297-.159.602-.312.91-.47a44.038 44.038 0 0 1 3.992-1.761 40.516 40.516 0 0 1 4.467-1.43 35.665 35.665 0 0 1 4.799-.9 28.9 28.9 0 0 1 4.933-.173c1.637.08 3.253.31 4.784.703 1.531.39 2.976.93 4.273 1.588.647.332 1.263.68 1.833 1.056.29.177.557.386.827.573.27.186.521.39.765.59.975.803 1.793 1.616 2.439 2.4.168.188.315.386.46.572.144.186.283.366.41.543.245.364.475.689.663.997.185.31.347.587.482.83.136.243.235.46.321.632.17.346.253.53.253.53l-.444-.374c-.144-.121-.313-.278-.521-.45-.213-.17-.451-.366-.715-.585l-.898-.69-.52-.366c-.179-.128-.36-.263-.56-.385-.198-.125-.397-.257-.602-.392-.21-.13-.428-.255-.65-.386-.219-.135-.452-.257-.687-.386l-.357-.193c-.123-.063-.248-.12-.374-.181-.253-.117-.5-.255-.767-.363-.266-.112-.527-.242-.808-.34a20.693 20.693 0 0 0-1.721-.61 24.795 24.795 0 0 0-3.814-.843c-1.34-.193-2.743-.273-4.175-.272-.716-.007-1.441.031-2.169.067-.729.054-1.46.108-2.194.2a50.825 50.825 0 0 0-4.38.7 74.88 74.88 0 0 0-4.238.99 107.78 107.78 0 0 0-3.963 1.127c-.631.19-1.242.387-1.836.577-.596.185-1.165.382-1.717.562-1.103.367-2.114.717-3.013 1.03-.903.32-1.688.6-2.337.828l-2.056.736m-38.134-1.628l.09.052c.798.466 1.592.89 2.451 1.194a2.675 2.675 0 0 1-.862-.16c-.546-.2-1.03-.528-1.496-.87l-.183-.216"/>
            <path fill="#754841" d="M127.297 121.999c3.126-2.748 6.619-5.371 10.182-7.9 11.83-8.393 24.43-15.765 26.894-23.356 4.293-13.221-14.063-20.524 4.237-42.231h.003c-17.74 12.905-14.424 24.944-16.12 34.822-1.699 9.88-19.981 9.298-29.01 16.519-5.4 4.785-20.983 12.658-13.88 39.13 2.232 8.323 6.64 14.45 11.973 18.966l-.007-.009-.063-.078c-11.842-14.604-5.378-26.042 5.791-35.863M231.956 84.57c48.526 11.81 57.862 62.364 39.346 92.465l.004.005-.002.002c-6.642 10.103-14.887 18.446-24.232 24.402 30.524-7.486 69.351-44.307 58.64-78.9-13.888-44.844-58.577-49.74-93.622-56.847-17.127-3.474-36.44-9.798-39.385-21.652-3.114 15.63 22.846 31.664 59.251 40.524"/>
            <path fill="#FFF" d="M266.598 123.813s-8.125 10.358-14.725 9.555c-6.6-.805-18.774-3.849-18.018-5.503.756-1.653 6.04-13.793 16.195-12.468 10.153 1.325 19.306 8.381 16.548 8.416"/>
            <path fill="#000" d="M253.257 123.778c-3.3-.508-2.513-5.627.787-5.12 3.3.508 2.513 5.627-.787 5.12m19.078-7.007c-1.171 1.334-2.625 2.143-4.316 2.625.074-.023-.16.023-.191.029-.291.05-.578.113-.873.13-.692.042-1.365.039-2.053-.075-.38-.063-.754-.153-1.122-.259 1.255.05 2.63-.122 3.7-.72a7.626 7.626 0 0 0 1.971-1.555c.48-.527.867-1.13 1.257-1.725-.537.509-1.063 1.042-1.661 1.479-.587.427-1.283.907-2.005 1.065a8.924 8.924 0 0 1-4.777-.234 14.23 14.23 0 0 1-1.246-.476c.052.002.104.008.155.008 1.81.028 3.681-.58 5.097-1.724 1.256-1.016 1.823-2.409 1.974-3.983-.306.901-.679 1.753-1.327 2.465-.774.85-1.861 1.34-2.945 1.663-1.209.349-2.364.383-3.605.172-1.203-.204-2.374-.57-3.54-.926-1.523-.464-3.063-.925-4.659-1.048-1.905-.147-3.855.059-5.701.552-1.4.374-2.801.913-4.066 1.658a16.373 16.373 0 0 0-3.91 3.14c-1.232 1.345-2.274 2.92-3.182 4.498-.77 1.335-1.434 2.77-1.455 4.336.373-1.519 1.303-2.825 2.277-4.022.956-1.176 2.932-2.92 4.039-3.971 2.254-1.921 5.107-3.122 5.154-2.569.554 6.58-1.992 13.088 1.479 13.771.991.196 1.052 2.047-2.605.366-3.028-.948-7.124-2.333-10.1-3.122 1.486.838 2.999 1.658 4.542 2.413.79.564 1.667 1.006 2.548 1.417 1.458.681 2.932 1.422 4.465 1.919 1.603.519 3.214.981 4.9 1.125 1.324.112 2.648.043 3.971-.038-1.308-.126-2.62-.21-3.919-.405-1.485-.224-2.922-.658-4.343-1.128 2.558.621 5.204.837 7.787.34 1.26-.099 2.526-.631 3.651-1.115 1.11-.23 2.237-.244 3.361-.301a9.446 9.446 0 0 0-1.925-.345c.502-.234 1.001-.475 1.497-.73.767-.394 1.532-.77 2.394-.887-.478-.138-.973-.131-1.46-.052.21-.128.414-.246.602-.335a6.487 6.487 0 0 1 1.722-.608c.575-.116 1.16-.184 1.73-.322-.787-.087-1.595-.165-2.384-.081.294-.165.587-.325.894-.464.845-.386 1.724-.601 2.596-.898-.927-.318-1.904-.254-2.815.046.885-.859 1.804-1.643 3.089-1.824-1.698-.615-3.224.695-4.372 1.789a37.35 37.35 0 0 0-.813.824c-.545.479-1.103.94-1.702 1.36a14.874 14.874 0 0 1-5.109 2.3c-2.433.575-6.524.205-8.885-.196.202-.002 3.987-.051 4.19-.066 2.862-.22 5.473-1.443 6.935-3.94-2.27-1.089-1.438-4.878 1.08-4.914a7.752 7.752 0 0 0-.065-.489c-.008-.046-.018-.09-.025-.136l-.004-.02c-.373-2.056-2.268-4.588-4.93-5.21.336.074.672.148 1.01.228 2.127.552 4.057 1.712 6.053 2.597 1.732.769 3.583 1.371 5.5 1.316a9.148 9.148 0 0 0 4.178-1.12 8.843 8.843 0 0 0 3.541-3.65c.741-1.417 1.049-2.946 1.06-4.534-.46 1.686-1.145 3.26-2.31 4.586"/>
            <path fill="#000" d="M249.05 122.933c0-2.535 1.307-4.771 3.3-6.116a8.424 8.424 0 0 0-2.427-.356c-4.522 0-8.188 3.562-8.188 7.954 0 4.393 3.666 7.955 8.188 7.955a8.28 8.28 0 0 0 5.529-2.1c-3.631-.586-6.402-3.643-6.402-7.337"/>
            <path fill="#FFF" d="M159.86 123.813s8.124 10.358 14.724 9.555c6.6-.805 18.774-3.849 18.018-5.503-.755-1.653-6.04-13.793-16.194-12.468-10.153 1.325-19.307 8.381-16.548 8.416"/>
            <path fill="#000" d="M172.414 118.659c3.3-.508 4.087 4.611.787 5.119s-4.087-4.612-.787-5.12m-20.602-6.473c.013 1.588.32 3.117 1.062 4.533a8.836 8.836 0 0 0 3.54 3.651 9.135 9.135 0 0 0 4.179 1.12c1.916.056 3.767-.547 5.5-1.315 1.997-.886 3.926-2.046 6.053-2.597.338-.08.674-.156 1.01-.228-2.662.621-4.558 3.154-4.93 5.21l-.004.02c-.009.045-.018.09-.025.136-.025.146-.047.309-.064.489 2.517.034 3.348 3.824 1.078 4.913 1.464 2.497 4.074 3.72 6.937 3.94.202.015 3.986.064 4.188.067-2.36.4-6.451.77-8.884.196a14.878 14.878 0 0 1-5.11-2.3 19.867 19.867 0 0 1-1.7-1.361 39.466 39.466 0 0 0-.813-.824c-1.149-1.094-2.674-2.403-4.374-1.79 1.285.182 2.204.966 3.09 1.825-.91-.3-1.888-.364-2.816-.046.873.297 1.753.512 2.596.897.308.14.602.3.893.464-.787-.082-1.596-.005-2.382.082.57.138 1.155.206 1.73.322a6.486 6.486 0 0 1 1.72.608c.189.089.394.206.604.334-.488-.078-.981-.086-1.46.054.862.117 1.628.492 2.394.886.496.255.994.496 1.497.73a9.506 9.506 0 0 0-1.926.345c1.124.057 2.253.072 3.361.3 1.125.485 2.392 1.018 3.652 1.115 2.581.497 5.23.282 7.788-.34-1.423.47-2.859.905-4.345 1.129-1.3.196-2.61.28-3.918.405 1.323.081 2.647.15 3.97.038 1.687-.143 3.298-.606 4.9-1.125 1.534-.497 3.008-1.238 4.466-1.919.88-.411 1.758-.854 2.547-1.417a87.79 87.79 0 0 0 4.543-2.413c-2.975.788-7.072 2.174-10.1 3.122-3.657 1.681-3.597-.17-2.605-.366 3.47-.683.925-7.192 1.48-13.77.045-.553 2.898.647 5.152 2.568 1.108 1.052 3.083 2.795 4.04 3.972.974 1.196 1.903 2.501 2.276 4.02-.022-1.565-.686-3-1.454-4.335-.908-1.578-1.95-3.153-3.18-4.498a16.378 16.378 0 0 0-3.913-3.14c-1.263-.745-2.666-1.285-4.065-1.658-1.846-.493-3.796-.7-5.703-.552-1.595.123-3.134.585-4.657 1.049-1.165.354-2.337.72-3.54.925-1.241.21-2.397.177-3.606-.172-1.083-.323-2.17-.812-2.943-1.663-.649-.712-1.022-1.564-1.329-2.464.151 1.573.72 2.966 1.975 3.982 1.416 1.145 3.285 1.752 5.096 1.725.052-.001.103-.007.155-.008-.408.176-.82.337-1.246.475a8.921 8.921 0 0 1-4.776.234c-.722-.16-1.419-.638-2.005-1.065-.6-.437-1.124-.97-1.66-1.479.389.596.775 1.198 1.256 1.725a7.626 7.626 0 0 0 1.97 1.555c1.072.599 2.446.77 3.702.72a9.815 9.815 0 0 1-1.125.26c-.686.113-1.36.116-2.051.075-.295-.018-.583-.081-.874-.131-.03-.005-.266-.052-.191-.028-1.69-.482-3.145-1.293-4.315-2.627-1.165-1.325-1.85-2.9-2.31-4.585"/>
            <path fill="#000" d="M177.408 122.933c0-2.535-1.307-4.771-3.3-6.116a8.42 8.42 0 0 1 2.427-.356c4.521 0 8.187 3.562 8.187 7.954 0 4.393-3.666 7.955-8.187 7.955-2.135 0-4.071-.8-5.53-2.1 3.631-.586 6.403-3.643 6.403-7.337"/>
        </g>
    </g>
</svg>
